<?xml version="1.0" encoding="UTF-8" standalone="no"?>
<svg
   xmlns:dc="http://purl.org/dc/elements/1.1/"
   xmlns:cc="http://creativecommons.org/ns#"
   xmlns:rdf="http://www.w3.org/1999/02/22-rdf-syntax-ns#"
   xmlns:svg="http://www.w3.org/2000/svg"
   xmlns="http://www.w3.org/2000/svg"
   viewBox="0 0 822.88311 244.76233"
   height="244.76233"
   width="822.88312"
   xml:space="preserve"
   id="svg2"
   version="1.1"><metadata
     id="metadata8"><rdf:RDF><cc:Work
         rdf:about=""><dc:format>image/svg+xml</dc:format><dc:type
           rdf:resource="http://purl.org/dc/dcmitype/StillImage" /><dc:title></dc:title></cc:Work></rdf:RDF></metadata><defs
     id="defs6"><clipPath
       id="clipPath18"
       clipPathUnits="userSpaceOnUse"><path
         id="path16"
         d="M 0,480 H 640 V 0 H 0 Z" /></clipPath></defs><g
     transform="matrix(1.3333333,0,0,-1.3333333,-13.819004,435.35788)"
     id="g10"><g
       style="fill:#ffffff"
       id="g12"><g
         style="fill:#ffffff"
         clip-path="url(#clipPath18)"
         id="g14"><g
           style="fill:#ffffff"
           transform="translate(151.7183,178.873)"
           id="g20"><path
             id="path22"
             style="fill:#ffffff;fill-opacity:1;fill-rule:nonzero;stroke:none"
             d="m 0,0 c 4.666,-6.801 8.966,-11.865 12.9,-15.2 3.932,-3.331 7.3,-5.732 10.1,-7.2 3.332,-1.6 6.332,-2.401 9,-2.401 -3.2,-4.131 -6.8,-7.131 -10.8,-9 -1.734,-0.799 -3.6,-1.399 -5.6,-1.799 -2,-0.4 -4.169,-0.431 -6.5,-0.1 -2.334,0.335 -4.8,1.134 -7.4,2.399 -2.6,1.27 -5.3,3.17 -8.1,5.701 -4.534,4 -9.069,9.069 -13.6,15.2 -4.534,6.13 -8.769,12.365 -12.7,18.7 -3.934,6.331 -7.468,12.331 -10.6,18 -3.134,5.665 -5.5,10.1 -7.1,13.3 -0.534,-1.469 -1.034,-2.969 -1.5,-4.5 -0.469,-1.535 -1.034,-3.1 -1.7,-4.7 C -56.269,20.531 -58.234,13.666 -59.5,7.8 -60.769,1.932 -61.6,-3 -62,-7 c -0.534,-4.666 -0.668,-8.666 -0.4,-12 -6.4,0.4 -11.334,1.9 -14.8,4.5 -3.468,2.6 -5.834,5.934 -7.1,10 -1.269,4.065 -1.634,8.766 -1.1,14.1 0.531,5.332 1.6,10.9 3.2,16.7 1.6,5.8 3.466,11.665 5.6,17.6 2.131,5.931 4.266,11.565 6.4,16.9 1.6,4.531 3.3,9.1 5.1,13.7 1.8,4.6 3.6,8.866 5.4,12.8 1.8,3.931 3.466,7.4 5,10.4 1.532,3 2.766,5.231 3.7,6.7 2.4,3.6 6.166,4.931 11.3,4 5.131,-0.935 10.7,-3.734 16.7,-8.4 -1.2,-1.6 -2.6,-3.869 -4.2,-6.8 -1.468,-2.534 -3.169,-5.834 -5.1,-9.9 -1.934,-4.069 -4.234,-9.3 -6.9,-15.7 3.2,0.531 7.166,1.631 11.9,3.3 4.731,1.665 10.5,4.165 17.3,7.5 4.666,2.266 8.4,5.031 11.2,8.3 2.8,3.265 4.632,6.666 5.5,10.2 0.866,3.531 0.766,7.031 -0.3,10.5 -1.068,3.466 -3.068,6.5 -6,9.1 -2.934,2.6 -6.8,4.6 -11.6,6 -4.8,1.4 -10.534,1.766 -17.2,1.1 -9.069,-0.8 -17.7,-2.769 -25.9,-5.9 -8.2,-3.135 -15.734,-6.934 -22.6,-11.4 -6.869,-4.469 -13,-9.3 -18.4,-14.5 -5.4,-5.2 -9.834,-10.269 -13.3,-15.2 -3.469,-4.934 -5.834,-9.5 -7.1,-13.7 -1.269,-4.201 -1.169,-7.5 0.3,-9.9 -7.334,1.73 -13.2,4.199 -17.6,7.4 -1.869,1.33 -3.534,2.9 -5,4.7 -1.469,1.8 -2.469,3.8 -3,6 -0.531,2.2 -0.465,4.7 0.2,7.5 0.666,2.8 2.2,5.865 4.6,9.2 3.331,4.665 7.731,9.3 13.2,13.9 5.466,4.6 11.566,8.931 18.3,13 6.731,4.066 13.866,7.8 21.4,11.2 7.531,3.4 15.1,6.3 22.7,8.7 7.6,2.4 15.031,4.2 22.3,5.4 7.266,1.2 13.9,1.666 19.9,1.4 14.531,-0.669 25.7,-3.769 33.5,-9.3 7.8,-5.535 12.831,-13.035 15.1,-22.5 1.6,-6.535 1.831,-12.369 0.7,-17.5 -1.134,-5.135 -3.2,-9.769 -6.2,-13.9 -3,-4.135 -6.769,-7.735 -11.3,-10.8 -4.534,-3.069 -9.369,-5.701 -14.5,-7.9 -5.134,-2.2 -10.369,-4.068 -15.7,-5.6 -5.334,-1.535 -10.334,-2.769 -15,-3.701 2,-3.334 4.2,-7.033 6.6,-11.099 2.4,-4.069 5,-8.269 7.8,-12.6 2.8,-4.334 5.666,-8.77 8.6,-13.301 C -5.869,8.666 -2.934,4.266 0,0" /></g><g
           style="fill:#ffffff"
           transform="translate(230.1157,246.0728)"
           id="g24"><path
             id="path26"
             style="fill:#ffffff;fill-opacity:1;fill-rule:nonzero;stroke:none"
             d="m 0,0 c 0.531,4.932 0.631,8.5 0.3,10.7 -0.334,2.2 -0.934,3.5 -1.8,3.9 -0.869,0.4 -1.9,0.166 -3.1,-0.7 -1.2,-0.869 -2.4,-1.9 -3.6,-3.1 -2.4,-2.669 -4.9,-6.4 -7.5,-11.2 -2.6,-4.8 -4.968,-9.934 -7.1,-15.399 2.8,-3.07 5.466,-4.5 8,-4.301 2.531,0.2 4.866,1.301 7,3.301 2.132,2 3.866,4.599 5.2,7.799 1.331,3.201 2.2,6.201 2.6,9 m 37.8,-6.4 c 0.4,0.4 0.9,0.2 1.5,-0.6 0.6,-0.799 1.066,-1.9 1.4,-3.299 0.331,-1.401 0.466,-2.936 0.4,-4.601 -0.069,-1.669 -0.5,-3.169 -1.3,-4.5 -0.534,-0.8 -1.868,-2.768 -4,-5.899 -2.134,-3.135 -4.9,-6.77 -8.3,-10.901 -3.4,-4.134 -7.3,-8.468 -11.7,-13 -4.4,-4.535 -9.069,-8.7 -14,-12.5 -4.934,-3.8 -10.069,-6.869 -15.4,-9.2 -5.334,-2.335 -10.6,-3.366 -15.8,-3.1 -8,0.4 -14.369,2.6 -19.1,6.6 -4.734,4 -7.969,9.2 -9.7,15.601 -1.731,6.399 -2.031,13.599 -0.9,21.599 1.131,8 3.7,16.131 7.7,24.401 2.8,5.731 6.066,10.865 9.8,15.399 3.731,4.531 7.831,8.232 12.3,11.1 4.466,2.866 9.366,4.8 14.7,5.8 5.331,1 11,0.832 17,-0.5 4.8,-1.068 8.266,-3.434 10.4,-7.1 2.132,-3.669 3.366,-7.7 3.7,-12.1 0.332,-4.4 0,-8.7 -1,-12.9 -1,-4.199 -2.1,-7.5 -3.3,-9.9 -0.934,-1.869 -2.634,-4.168 -5.1,-6.9 -2.469,-2.734 -5.469,-5.034 -9,-6.899 -3.534,-1.869 -7.434,-2.901 -11.7,-3.101 -4.269,-0.2 -8.669,1.3 -13.2,4.5 -0.669,-3.069 -1.134,-5.899 -1.4,-8.5 -0.269,-2.6 -0.269,-4.969 0,-7.1 0.532,-3.6 1.831,-6.1 3.9,-7.5 2.066,-1.4 4.666,-1.869 7.8,-1.4 3.131,0.466 6.631,1.766 10.5,3.9 3.866,2.131 7.866,4.866 12,8.201 5.066,4.131 9.566,8.23 13.5,12.299 3.932,4.066 7.231,7.765 9.9,11.1 3.2,3.866 6,7.531 8.4,11" /></g><g
           style="fill:#ffffff"
           transform="translate(296.1152,216.0723)"
           id="g28"><path
             id="path30"
             style="fill:#ffffff;fill-opacity:1;fill-rule:nonzero;stroke:none"
             d="M 0,0 C 0.266,0.132 0.83,0.132 1.699,0 2.564,-0.134 3.432,-0.469 4.299,-1 5.166,-1.533 5.9,-2.168 6.5,-2.899 7.1,-3.634 7.4,-4.533 7.4,-5.6 7.4,-6.268 6.799,-7.734 5.6,-10 c -1.2,-2.268 -2.834,-4.834 -4.901,-7.699 -2.068,-2.869 -4.5,-5.869 -7.299,-9 -2.8,-3.135 -5.769,-5.935 -8.9,-8.401 -3.135,-2.468 -6.4,-4.4 -9.8,-5.799 -3.4,-1.4 -6.7,-1.835 -9.9,-1.3 -6.669,1.065 -11.269,4.599 -13.8,10.599 -1.469,2.932 -2.369,6.732 -2.7,11.401 -0.332,4.666 0.231,10.599 1.7,17.8 0.265,0.799 0.4,1.399 0.4,1.799 1.2,6.266 3,13.532 5.4,21.801 2.8,10.4 5.731,19.9 8.8,28.5 3.066,8.6 5.831,16.031 8.3,22.299 2.465,6.266 4.565,11.201 6.3,14.801 1.731,3.6 2.731,5.665 3,6.199 2.4,5.601 4.7,9.732 6.9,12.401 2.199,2.665 4.666,4.266 7.4,4.8 2.73,0.531 5.865,0.2 9.4,-1 C 9.432,108 13.73,106.266 18.799,104 12.131,92.266 5.932,79.932 0.199,67 -4.734,55.801 -9.635,43.266 -14.5,29.4 -19.369,15.531 -23,1.332 -25.4,-13.199 c -0.8,-4.801 -0.735,-7.935 0.2,-9.401 0.931,-1.468 2.265,-1.933 4,-1.4 1.731,0.531 3.531,1.632 5.399,3.301 1.865,1.666 3.401,3.23 4.6,4.699 4.265,5.201 7.031,9.066 8.301,11.601 1.265,2.531 2.23,4 2.9,4.399" /></g><g
           style="fill:#ffffff"
           transform="translate(349.7129,229.2734)"
           id="g32"><path
             id="path34"
             style="fill:#ffffff;fill-opacity:1;fill-rule:nonzero;stroke:none"
             d="m 0,0 c 0.266,0.799 0.8,2.365 1.6,4.699 0.8,2.332 1.7,4.865 2.7,7.6 1,2.732 1.931,5.332 2.8,7.801 0.866,2.465 1.5,4.1 1.9,4.9 -1.068,1.331 -2.568,2.465 -4.5,3.399 -1.935,0.932 -4.269,0.932 -7,0 -2.734,-0.934 -5.8,-3.134 -9.2,-6.6 -3.4,-3.468 -7.1,-9 -11.1,-16.6 -4.8,-8.8 -7.369,-16.199 -7.7,-22.199 -0.334,-6 0.6,-10.234 2.8,-12.701 2.2,-2.469 5.065,-3 8.6,-1.6 3.532,1.401 6.831,5.1 9.9,11.1 1.6,3.066 2.866,5.6 3.8,7.6 0.931,2 1.731,3.732 2.4,5.201 0.666,1.464 1.231,2.73 1.7,3.799 0.466,1.066 0.9,2.266 1.3,3.601 m 124.2,-13 c 0.266,0.131 0.8,0.131 1.6,0 0.8,-0.135 1.632,-0.469 2.5,-1 0.866,-0.535 1.632,-1.17 2.3,-1.9 0.666,-0.735 1,-1.635 1,-2.701 0,-0.669 -0.6,-2.069 -1.8,-4.2 -1.2,-2.135 -2.769,-4.599 -4.7,-7.4 -1.934,-2.799 -4.269,-5.699 -7,-8.699 -2.735,-3 -5.6,-5.77 -8.6,-8.301 -3,-2.533 -6.169,-4.569 -9.5,-6.1 -3.334,-1.534 -6.6,-2.234 -9.8,-2.099 -2.934,0 -5.534,0.5 -7.8,1.5 -2.269,1 -4.234,2.331 -5.9,4 -1.669,1.666 -3.1,3.531 -4.3,5.599 -1.2,2.067 -2.2,4.232 -3,6.5 -1.869,5.2 -3.069,11 -3.6,17.401 C 62,-23.869 57.565,-27.77 52.3,-32.101 47.031,-36.436 41.6,-40.4 36,-44 c -5.6,-3.601 -11.034,-6.535 -16.3,-8.801 -5.268,-2.268 -9.7,-3 -13.3,-2.199 -4.134,0.799 -7.234,2.799 -9.3,6 -2.069,3.199 -3.235,7.399 -3.5,12.6 -2,-2.935 -4.235,-5.77 -6.7,-8.5 -2.468,-2.735 -5.234,-5.235 -8.3,-7.5 -3.869,-2.801 -8.235,-4.334 -13.1,-4.6 -4.869,-0.266 -9.369,0.899 -13.5,3.5 -4.135,2.6 -7.369,6.799 -9.7,12.6 -2.331,5.799 -2.9,13.431 -1.7,22.9 1.2,9.33 3.531,17.766 7,25.299 3.465,7.531 7.666,13.966 12.6,19.301 4.931,5.331 10.4,9.465 16.4,12.4 6,2.931 12,4.399 18,4.399 4.4,0 8.332,-0.834 11.8,-2.5 3.465,-1.668 5.931,-3.568 7.4,-5.699 2.132,3.465 4.366,5.731 6.7,6.8 2.331,1.065 4.8,1.465 7.4,1.2 2.6,-0.269 5.4,-1.035 8.4,-2.301 C 39.3,39.631 42.531,38.331 46,37 41.6,28.6 37.6,20.531 34,12.799 32.4,9.465 30.8,6.064 29.2,2.6 27.6,-0.869 26.1,-4.301 24.7,-7.701 c -1.4,-3.4 -2.669,-6.6 -3.8,-9.6 -1.134,-3 -1.968,-5.635 -2.5,-7.9 -1.335,-5.199 -1.6,-8.634 -0.8,-10.299 0.8,-1.67 2.1,-2.4 3.9,-2.201 1.8,0.201 3.831,0.967 6.1,2.301 2.265,1.331 4.2,2.464 5.8,3.4 2.131,1.199 4.731,2.965 7.8,5.299 3.066,2.332 6.1,4.801 9.1,7.4 3,2.6 5.8,5.067 8.4,7.401 2.6,2.331 4.566,4.099 5.9,5.299 C 63.932,3 62.666,10.766 60.8,16.699 58.932,22.631 57,27.2 55,30.399 c -2.4,3.732 -4.935,6.4 -7.6,8 6.665,3.466 12.731,5.066 18.2,4.801 2.4,-0.135 4.765,-0.635 7.1,-1.5 2.331,-0.869 4.5,-2.369 6.5,-4.5 2,-2.135 3.766,-5 5.3,-8.6 1.531,-3.6 2.7,-8.135 3.5,-13.6 2.932,2.799 5.8,5.531 8.6,8.2 2.4,2.265 4.931,4.699 7.6,7.3 2.665,2.6 4.931,4.965 6.8,7.1 2,2.265 4.065,3.465 6.2,3.6 2.131,0.131 4.066,-0.135 5.8,-0.801 2,-0.799 3.932,-2.068 5.8,-3.799 l -38,-39 c 0.265,-2.935 0.431,-6 0.5,-9.201 0.065,-3.2 -0.034,-6.6 -0.3,-10.2 -0.269,-3.469 0.166,-6.568 1.3,-9.3 1.132,-2.734 2.9,-4.633 5.3,-5.7 1.465,-0.668 2.931,-0.834 4.4,-0.5 1.466,0.332 2.865,0.966 4.2,1.901 1.331,0.931 2.6,2.031 3.8,3.299 1.2,1.266 2.2,2.431 3,3.5 4.131,5.066 6.865,8.831 8.2,11.3 1.331,2.466 2.331,3.901 3,4.301" /></g><g
           style="fill:#ffffff"
           transform="translate(517.5117,208.873)"
           id="g36"><path
             id="path38"
             style="fill:#ffffff;fill-opacity:1;fill-rule:nonzero;stroke:none"
             d="m 0,0 c 1.601,3.065 2.866,5.6 3.8,7.6 0.931,2 1.731,3.731 2.4,5.2 0.666,1.466 1.232,2.731 1.7,3.8 0.466,1.066 0.9,2.265 1.3,3.599 0.266,0.666 0.8,2.201 1.6,4.601 0.801,2.399 1.7,4.966 2.7,7.7 1,2.73 1.932,5.331 2.8,7.8 0.866,2.466 1.5,4.1 1.9,4.9 -1.068,1.2 -2.568,2.265 -4.5,3.2 -1.934,0.931 -4.268,0.966 -7,0.1 C 3.966,47.631 0.9,45.465 -2.5,42 -5.899,38.531 -9.6,33 -13.6,25.4 -18.399,16.6 -20.969,9.199 -21.3,3.199 c -0.334,-6 0.6,-10.234 2.8,-12.699 2.2,-2.469 5.065,-3 8.601,-1.6 C -6.368,-9.7 -3.068,-6 0,0 m 51.4,7.199 c 0.266,0.132 0.831,0.132 1.701,0 0.865,-0.134 1.73,-0.469 2.599,-1 C 56.565,5.666 57.331,5.031 58,4.3 58.666,3.565 59,2.666 59,1.6 59,0.932 58.366,-0.568 57.101,-2.9 55.831,-5.234 54.132,-7.834 52,-10.7 c -2.134,-2.868 -4.6,-5.868 -7.399,-9 -2.801,-3.134 -5.801,-5.935 -9,-8.4 -3.201,-2.468 -6.536,-4.4 -10,-5.8 -3.469,-1.401 -6.801,-1.769 -10,-1.1 -4.135,0.932 -7.235,3 -9.301,6.199 -2.069,3.201 -3.235,7.401 -3.5,12.601 -2,-2.935 -4.235,-5.769 -6.699,-8.5 -2.469,-2.735 -5.235,-5.235 -8.301,-7.5 -3.868,-2.8 -8.235,-4.335 -13.1,-4.601 -4.869,-0.265 -9.369,0.901 -13.5,3.5 -4.135,2.601 -7.369,6.801 -9.7,12.601 -2.331,5.8 -2.899,13.43 -1.7,22.899 1.2,9.332 3.531,17.766 7,25.301 3.466,7.531 7.666,13.965 12.6,19.3 4.931,5.331 10.4,9.466 16.4,12.4 6,2.931 12,4.4 18,4.4 4.4,0 8.332,-0.869 11.801,-2.6 3.464,-1.734 5.93,-3.6 7.399,-5.6 2.132,3.466 4.366,5.731 6.7,6.8 2.331,1.066 4.8,1.431 7.401,1.1 C 39.7,62.965 42.5,62.166 45.5,60.9 48.5,59.631 51.731,58.331 55.2,57 50.8,48.6 46.8,40.531 43.2,32.8 41.601,29.465 40,26.065 38.4,22.6 36.8,19.131 35.3,15.73 33.9,12.4 32.5,9.065 31.231,5.9 30.101,2.9 c -1.135,-3 -1.969,-5.634 -2.5,-7.9 -1.335,-5.2 -1.635,-8.568 -0.901,-10.1 0.732,-1.535 1.932,-2.069 3.6,-1.6 1.666,0.466 3.466,1.6 5.4,3.399 1.932,1.801 3.5,3.432 4.7,4.901 4.266,5.2 7.032,9 8.3,11.4 1.266,2.4 2.166,3.8 2.7,4.199" /></g><g
           style="fill:#ffffff"
           transform="translate(592.9111,287.2729)"
           id="g40"><path
             id="path42"
             style="fill:#ffffff;fill-opacity:1;fill-rule:nonzero;stroke:none"
             d="m 0,0 c 2,-1.069 4.031,-1.969 6.1,-2.7 2.065,-0.735 3.7,-0.7 4.9,0.1 1.2,0.665 3.065,1.9 5.6,3.7 2.531,1.8 5.1,3.8 7.7,6 2.599,2.2 4.9,4.5 6.9,6.9 2,2.4 3.131,4.6 3.4,6.6 0.131,1.2 -0.569,2.531 -2.1,4 -1.534,1.465 -3.234,2.831 -5.101,4.1 C 25.531,29.966 23.8,31.031 22.2,31.9 20.6,32.766 19.8,33.131 19.8,33 19.665,31.931 18.2,29.9 15.399,26.9 12.6,23.9 9.466,20.731 6,17.4 2,13.531 -2.534,9.331 -7.601,4.8 -4.935,2.931 -2.4,1.331 0,0 m 20.6,-71 c 0.799,-0.134 1.631,-0.468 2.5,-1 0.866,-0.535 1.631,-1.169 2.299,-1.9 0.666,-0.734 1,-1.635 1,-2.7 0,-0.669 -0.633,-2.134 -1.899,-4.4 -1.269,-2.269 -2.969,-4.869 -5.101,-7.8 -2.133,-2.934 -4.599,-5.969 -7.399,-9.1 -2.8,-3.135 -5.8,-5.934 -9,-8.4 -3.2,-2.469 -6.534,-4.369 -10,-5.7 -3.469,-1.334 -6.8,-1.669 -10,-1 -5.469,1.065 -9.2,4.065 -11.2,9 -2,4.931 -2.531,11.366 -1.6,19.299 0.931,7.932 3.1,17.032 6.5,27.301 3.4,10.266 7.831,21.331 13.3,33.2 1.466,3.066 3.1,5.366 4.899,6.9 1.801,1.531 4,2.365 6.601,2.5 2.6,0.131 5.6,-0.334 9,-1.4 3.399,-1.069 7.431,-2.669 12.1,-4.8 -4.134,-8.134 -8,-16 -11.6,-23.6 -1.601,-3.2 -3.2,-6.569 -4.8,-10.101 -1.6,-3.533 -3.1,-7 -4.5,-10.399 -1.4,-3.4 -2.669,-6.634 -3.801,-9.7 -1.133,-3.069 -2.034,-5.869 -2.699,-8.401 -0.934,-3.468 -1.4,-6.099 -1.4,-7.899 0,-1.8 0.331,-2.969 1,-3.5 0.666,-0.534 1.599,-0.601 2.8,-0.2 1.2,0.4 2.4,1.031 3.6,1.9 1.199,0.865 2.4,1.9 3.6,3.1 1.2,1.2 2.2,2.265 3,3.2 4.265,5.2 7.031,9 8.3,11.399 1.265,2.401 2.231,3.801 2.9,4.201 0.266,0.131 0.8,0.131 1.6,0" /></g></g></g></g></svg>